<?xml version="1.0" encoding="UTF-8" standalone="no"?>
<!DOCTYPE svg PUBLIC "-//W3C//DTD SVG 1.1//EN"
 "http://www.w3.org/Graphics/SVG/1.1/DTD/svg11.dtd">
<!-- Generated by graphviz version 2.43.0 (0)
 -->
<!-- Title: snakemake_dag Pages: 1 -->
<svg width="797pt" height="548pt"
 viewBox="0.00 0.00 796.50 548.00" xmlns="http://www.w3.org/2000/svg" xmlns:xlink="http://www.w3.org/1999/xlink">
<g id="graph0" class="graph" transform="scale(1 1) rotate(0) translate(4 544)">
<title>snakemake_dag</title>
<polygon fill="white" stroke="transparent" points="-4,4 -4,-544 792.5,-544 792.5,4 -4,4"/>
<!-- 1 -->
<g id="node1" class="node">
<title>1</title>
<path fill="none" stroke="#d85656" stroke-width="2" d="M308.5,-468C308.5,-468 278.5,-468 278.5,-468 272.5,-468 266.5,-462 266.5,-456 266.5,-456 266.5,-444 266.5,-444 266.5,-438 272.5,-432 278.5,-432 278.5,-432 308.5,-432 308.5,-432 314.5,-432 320.5,-438 320.5,-444 320.5,-444 320.5,-456 320.5,-456 320.5,-462 314.5,-468 308.5,-468"/>
<text text-anchor="middle" x="293.5" y="-447.5" font-family="sans" font-size="10.00">multiqc</text>
</g>
<!-- 2 -->
<g id="node2" class="node">
<title>2</title>
<path fill="none" stroke="#56d863" stroke-width="2" d="M308.5,-540C308.5,-540 278.5,-540 278.5,-540 272.5,-540 266.5,-534 266.5,-528 266.5,-528 266.5,-516 266.5,-516 266.5,-510 272.5,-504 278.5,-504 278.5,-504 308.5,-504 308.5,-504 314.5,-504 320.5,-510 320.5,-516 320.5,-516 320.5,-528 320.5,-528 320.5,-534 314.5,-540 308.5,-540"/>
<text text-anchor="middle" x="293.5" y="-519.5" font-family="sans" font-size="10.00">fastqc</text>
</g>
<!-- 2&#45;&gt;1 -->
<g id="edge1" class="edge">
<title>2&#45;&gt;1</title>
<path fill="none" stroke="grey" stroke-width="2" d="M293.5,-503.7C293.5,-495.98 293.5,-486.71 293.5,-478.11"/>
<polygon fill="grey" stroke="grey" stroke-width="2" points="297,-478.1 293.5,-468.1 290,-478.1 297,-478.1"/>
</g>
<!-- 3 -->
<g id="node3" class="node">
<title>3</title>
<path fill="none" stroke="#d8b456" stroke-width="2" d="M392,-396C392,-396 301,-396 301,-396 295,-396 289,-390 289,-384 289,-384 289,-372 289,-372 289,-366 295,-360 301,-360 301,-360 392,-360 392,-360 398,-360 404,-366 404,-372 404,-372 404,-384 404,-384 404,-390 398,-396 392,-396"/>
<text text-anchor="middle" x="346.5" y="-375.5" font-family="sans" font-size="10.00">plot_alignment_rate</text>
</g>
<!-- 4 -->
<g id="node4" class="node">
<title>4</title>
<path fill="none" stroke="#61d856" stroke-width="2" d="M426.5,-468C426.5,-468 396.5,-468 396.5,-468 390.5,-468 384.5,-462 384.5,-456 384.5,-456 384.5,-444 384.5,-444 384.5,-438 390.5,-432 396.5,-432 396.5,-432 426.5,-432 426.5,-432 432.5,-432 438.5,-438 438.5,-444 438.5,-444 438.5,-456 438.5,-456 438.5,-462 432.5,-468 426.5,-468"/>
<text text-anchor="middle" x="411.5" y="-447.5" font-family="sans" font-size="10.00">count</text>
</g>
<!-- 4&#45;&gt;3 -->
<g id="edge2" class="edge">
<title>4&#45;&gt;3</title>
<path fill="none" stroke="grey" stroke-width="2" d="M395.43,-431.7C387.56,-423.22 377.94,-412.86 369.33,-403.58"/>
<polygon fill="grey" stroke="grey" stroke-width="2" points="371.75,-401.05 362.38,-396.1 366.62,-405.81 371.75,-401.05"/>
</g>
<!-- 8 -->
<g id="node8" class="node">
<title>8</title>
<path fill="none" stroke="#8fd856" stroke-width="2" d="M520.5,-396C520.5,-396 434.5,-396 434.5,-396 428.5,-396 422.5,-390 422.5,-384 422.5,-384 422.5,-372 422.5,-372 422.5,-366 428.5,-360 434.5,-360 434.5,-360 520.5,-360 520.5,-360 526.5,-360 532.5,-366 532.5,-372 532.5,-372 532.5,-384 532.5,-384 532.5,-390 526.5,-396 520.5,-396"/>
<text text-anchor="middle" x="477.5" y="-375.5" font-family="sans" font-size="10.00">aggregated_counts</text>
</g>
<!-- 4&#45;&gt;8 -->
<g id="edge6" class="edge">
<title>4&#45;&gt;8</title>
<path fill="none" stroke="grey" stroke-width="2" d="M427.81,-431.7C435.81,-423.22 445.57,-412.86 454.32,-403.58"/>
<polygon fill="grey" stroke="grey" stroke-width="2" points="457.06,-405.78 461.37,-396.1 451.97,-400.98 457.06,-405.78"/>
</g>
<!-- 5 -->
<g id="node5" class="node">
<title>5</title>
<path fill="none" stroke="#56d8d0" stroke-width="2" d="M386,-540C386,-540 351,-540 351,-540 345,-540 339,-534 339,-528 339,-528 339,-516 339,-516 339,-510 345,-504 351,-504 351,-504 386,-504 386,-504 392,-504 398,-510 398,-516 398,-516 398,-528 398,-528 398,-534 392,-540 386,-540"/>
<text text-anchor="middle" x="368.5" y="-519.5" font-family="sans" font-size="10.00">cutadapt</text>
</g>
<!-- 5&#45;&gt;4 -->
<g id="edge3" class="edge">
<title>5&#45;&gt;4</title>
<path fill="none" stroke="grey" stroke-width="2" d="M379.13,-503.7C384.13,-495.56 390.19,-485.69 395.71,-476.7"/>
<polygon fill="grey" stroke="grey" stroke-width="2" points="398.74,-478.46 400.99,-468.1 392.78,-474.79 398.74,-478.46"/>
</g>
<!-- 6 -->
<g id="node6" class="node">
<title>6</title>
<path fill="none" stroke="#a7d856" stroke-width="2" d="M483,-540C483,-540 428,-540 428,-540 422,-540 416,-534 416,-528 416,-528 416,-516 416,-516 416,-510 422,-504 428,-504 428,-504 483,-504 483,-504 489,-504 495,-510 495,-516 495,-516 495,-528 495,-528 495,-534 489,-540 483,-540"/>
<text text-anchor="middle" x="455.5" y="-519.5" font-family="sans" font-size="10.00">hisat2_index</text>
</g>
<!-- 6&#45;&gt;4 -->
<g id="edge4" class="edge">
<title>6&#45;&gt;4</title>
<path fill="none" stroke="grey" stroke-width="2" d="M444.62,-503.7C439.51,-495.56 433.3,-485.69 427.66,-476.7"/>
<polygon fill="grey" stroke="grey" stroke-width="2" points="430.54,-474.71 422.25,-468.1 424.61,-478.43 430.54,-474.71"/>
</g>
<!-- 7 -->
<g id="node7" class="node">
<title>7</title>
<path fill="none" stroke="#d8c356" stroke-width="2" d="M776.5,-324C776.5,-324 714.5,-324 714.5,-324 708.5,-324 702.5,-318 702.5,-312 702.5,-312 702.5,-300 702.5,-300 702.5,-294 708.5,-288 714.5,-288 714.5,-288 776.5,-288 776.5,-288 782.5,-288 788.5,-294 788.5,-300 788.5,-300 788.5,-312 788.5,-312 788.5,-318 782.5,-324 776.5,-324"/>
<text text-anchor="middle" x="745.5" y="-303.5" font-family="sans" font-size="10.00">plot_coverage</text>
</g>
<!-- 8&#45;&gt;7 -->
<g id="edge5" class="edge">
<title>8&#45;&gt;7</title>
<path fill="none" stroke="grey" stroke-width="2" d="M532.85,-364.63C574.35,-355.08 632.74,-341.06 692.46,-324.19"/>
<polygon fill="grey" stroke="grey" stroke-width="2" points="693.79,-327.46 702.45,-321.35 691.87,-320.72 693.79,-327.46"/>
</g>
<!-- 9 -->
<g id="node9" class="node">
<title>9</title>
<path fill="none" stroke="#d89c56" stroke-width="2" d="M188,-324C188,-324 121,-324 121,-324 115,-324 109,-318 109,-312 109,-312 109,-300 109,-300 109,-294 115,-288 121,-288 121,-288 188,-288 188,-288 194,-288 200,-294 200,-300 200,-300 200,-312 200,-312 200,-318 194,-324 188,-324"/>
<text text-anchor="middle" x="154.5" y="-303.5" font-family="sans" font-size="10.00">plot_gini_index</text>
</g>
<!-- 8&#45;&gt;9 -->
<g id="edge7" class="edge">
<title>8&#45;&gt;9</title>
<path fill="none" stroke="grey" stroke-width="2" d="M422.25,-362.23C418.96,-361.45 415.69,-360.7 412.5,-360 326.05,-341.06 300.3,-345.25 210.12,-323.98"/>
<polygon fill="grey" stroke="grey" stroke-width="2" points="210.84,-320.55 200.3,-321.62 209.21,-327.36 210.84,-320.55"/>
</g>
<!-- 11 -->
<g id="node11" class="node">
<title>11</title>
<path fill="none" stroke="#569ad8" stroke-width="2" d="M598.5,-324C598.5,-324 494.5,-324 494.5,-324 488.5,-324 482.5,-318 482.5,-312 482.5,-312 482.5,-300 482.5,-300 482.5,-294 488.5,-288 494.5,-288 494.5,-288 598.5,-288 598.5,-288 604.5,-288 610.5,-294 610.5,-300 610.5,-300 610.5,-312 610.5,-312 610.5,-318 604.5,-324 598.5,-324"/>
<text text-anchor="middle" x="546.5" y="-303.5" font-family="sans" font-size="10.00">normalise_count_table</text>
</g>
<!-- 8&#45;&gt;11 -->
<g id="edge9" class="edge">
<title>8&#45;&gt;11</title>
<path fill="none" stroke="grey" stroke-width="2" d="M494.56,-359.7C503,-351.14 513.32,-340.66 522.54,-331.3"/>
<polygon fill="grey" stroke="grey" stroke-width="2" points="525.11,-333.68 529.64,-324.1 520.13,-328.77 525.11,-333.68"/>
</g>
<!-- 12 -->
<g id="node12" class="node">
<title>12</title>
<path fill="none" stroke="#56d8b9" stroke-width="2" d="M452.5,-324C452.5,-324 364.5,-324 364.5,-324 358.5,-324 352.5,-318 352.5,-312 352.5,-312 352.5,-300 352.5,-300 352.5,-294 358.5,-288 364.5,-288 364.5,-288 452.5,-288 452.5,-288 458.5,-288 464.5,-294 464.5,-300 464.5,-300 464.5,-312 464.5,-312 464.5,-318 458.5,-324 452.5,-324"/>
<text text-anchor="middle" x="408.5" y="-303.5" font-family="sans" font-size="10.00">plot_missed_rgrnas</text>
</g>
<!-- 8&#45;&gt;12 -->
<g id="edge10" class="edge">
<title>8&#45;&gt;12</title>
<path fill="none" stroke="grey" stroke-width="2" d="M460.44,-359.7C452,-351.14 441.68,-340.66 432.46,-331.3"/>
<polygon fill="grey" stroke="grey" stroke-width="2" points="434.87,-328.77 425.36,-324.1 429.89,-333.68 434.87,-328.77"/>
</g>
<!-- 14 -->
<g id="node14" class="node">
<title>14</title>
<path fill="none" stroke="#bed856" stroke-width="2" d="M672.5,-324C672.5,-324 640.5,-324 640.5,-324 634.5,-324 628.5,-318 628.5,-312 628.5,-312 628.5,-300 628.5,-300 628.5,-294 634.5,-288 640.5,-288 640.5,-288 672.5,-288 672.5,-288 678.5,-288 684.5,-294 684.5,-300 684.5,-300 684.5,-312 684.5,-312 684.5,-318 678.5,-324 672.5,-324"/>
<text text-anchor="middle" x="656.5" y="-303.5" font-family="sans" font-size="10.00">mageck</text>
</g>
<!-- 8&#45;&gt;14 -->
<g id="edge12" class="edge">
<title>8&#45;&gt;14</title>
<path fill="none" stroke="grey" stroke-width="2" d="M525.82,-359.96C551.19,-350.79 582.92,-338.96 618.64,-324.23"/>
<polygon fill="grey" stroke="grey" stroke-width="2" points="620.42,-327.28 628.31,-320.21 617.73,-320.82 620.42,-327.28"/>
</g>
<!-- 20 -->
<g id="node20" class="node">
<title>20</title>
<path fill="none" stroke="#56d87b" stroke-width="2" d="M322.5,-324C322.5,-324 230.5,-324 230.5,-324 224.5,-324 218.5,-318 218.5,-312 218.5,-312 218.5,-300 218.5,-300 218.5,-294 224.5,-288 230.5,-288 230.5,-288 322.5,-288 322.5,-288 328.5,-288 334.5,-294 334.5,-300 334.5,-300 334.5,-312 334.5,-312 334.5,-318 328.5,-324 322.5,-324"/>
<text text-anchor="middle" x="276.5" y="-303.5" font-family="sans" font-size="10.00">convert_count_table</text>
</g>
<!-- 8&#45;&gt;20 -->
<g id="edge19" class="edge">
<title>8&#45;&gt;20</title>
<path fill="none" stroke="grey" stroke-width="2" d="M428.59,-359.97C400.5,-350.19 365.04,-337.84 335.43,-327.52"/>
<polygon fill="grey" stroke="grey" stroke-width="2" points="336.23,-324.09 325.63,-324.11 333.93,-330.71 336.23,-324.09"/>
</g>
<!-- 10 -->
<g id="node10" class="node">
<title>10</title>
<path fill="none" stroke="#d86e56" stroke-width="2" d="M597.5,-252C597.5,-252 487.5,-252 487.5,-252 481.5,-252 475.5,-246 475.5,-240 475.5,-240 475.5,-228 475.5,-228 475.5,-222 481.5,-216 487.5,-216 487.5,-216 597.5,-216 597.5,-216 603.5,-216 609.5,-222 609.5,-228 609.5,-228 609.5,-240 609.5,-240 609.5,-246 603.5,-252 597.5,-252"/>
<text text-anchor="middle" x="542.5" y="-231.5" font-family="sans" font-size="10.00">plot_sample_correlation</text>
</g>
<!-- 11&#45;&gt;10 -->
<g id="edge8" class="edge">
<title>11&#45;&gt;10</title>
<path fill="none" stroke="grey" stroke-width="2" d="M545.51,-287.7C545.07,-279.98 544.54,-270.71 544.05,-262.11"/>
<polygon fill="grey" stroke="grey" stroke-width="2" points="547.54,-261.89 543.48,-252.1 540.55,-262.29 547.54,-261.89"/>
</g>
<!-- 13 -->
<g id="node13" class="node">
<title>13</title>
<path fill="none" stroke="#56d892" stroke-width="2" d="M673.5,-252C673.5,-252 639.5,-252 639.5,-252 633.5,-252 627.5,-246 627.5,-240 627.5,-240 627.5,-228 627.5,-228 627.5,-222 633.5,-216 639.5,-216 639.5,-216 673.5,-216 673.5,-216 679.5,-216 685.5,-222 685.5,-228 685.5,-228 685.5,-240 685.5,-240 685.5,-246 679.5,-252 673.5,-252"/>
<text text-anchor="middle" x="656.5" y="-231.5" font-family="sans" font-size="10.00">lfc_plots</text>
</g>
<!-- 14&#45;&gt;13 -->
<g id="edge11" class="edge">
<title>14&#45;&gt;13</title>
<path fill="none" stroke="grey" stroke-width="2" d="M656.5,-287.7C656.5,-279.98 656.5,-270.71 656.5,-262.11"/>
<polygon fill="grey" stroke="grey" stroke-width="2" points="660,-262.1 656.5,-252.1 653,-262.1 660,-262.1"/>
</g>
<!-- 15 -->
<g id="node15" class="node">
<title>15</title>
<path fill="none" stroke="#d6d856" stroke-width="2" d="M771,-252C771,-252 716,-252 716,-252 710,-252 704,-246 704,-240 704,-240 704,-228 704,-228 704,-222 710,-216 716,-216 716,-216 771,-216 771,-216 777,-216 783,-222 783,-228 783,-228 783,-240 783,-240 783,-246 777,-252 771,-252"/>
<text text-anchor="middle" x="743.5" y="-231.5" font-family="sans" font-size="10.00">sg_rank_plot</text>
</g>
<!-- 14&#45;&gt;15 -->
<g id="edge13" class="edge">
<title>14&#45;&gt;15</title>
<path fill="none" stroke="grey" stroke-width="2" d="M678.01,-287.7C688.96,-278.88 702.45,-268.03 714.32,-258.47"/>
<polygon fill="grey" stroke="grey" stroke-width="2" points="716.64,-261.1 722.24,-252.1 712.26,-255.65 716.64,-261.1"/>
</g>
<!-- 16 -->
<g id="node16" class="node">
<title>16</title>
<path fill="none" stroke="#566bd8" stroke-width="2" d="M119.5,-108C119.5,-108 89.5,-108 89.5,-108 83.5,-108 77.5,-102 77.5,-96 77.5,-96 77.5,-84 77.5,-84 77.5,-78 83.5,-72 89.5,-72 89.5,-72 119.5,-72 119.5,-72 125.5,-72 131.5,-78 131.5,-84 131.5,-84 131.5,-96 131.5,-96 131.5,-102 125.5,-108 119.5,-108"/>
<text text-anchor="middle" x="104.5" y="-87.5" font-family="sans" font-size="10.00">plot_bf</text>
</g>
<!-- 17 -->
<g id="node17" class="node">
<title>17</title>
<path fill="none" stroke="#78d856" stroke-width="2" d="M113,-180C113,-180 78,-180 78,-180 72,-180 66,-174 66,-168 66,-168 66,-156 66,-156 66,-150 72,-144 78,-144 78,-144 113,-144 113,-144 119,-144 125,-150 125,-156 125,-156 125,-168 125,-168 125,-174 119,-180 113,-180"/>
<text text-anchor="middle" x="95.5" y="-159.5" font-family="sans" font-size="10.00">bagel2bf</text>
</g>
<!-- 17&#45;&gt;16 -->
<g id="edge14" class="edge">
<title>17&#45;&gt;16</title>
<path fill="none" stroke="grey" stroke-width="2" d="M97.72,-143.7C98.72,-135.98 99.91,-126.71 101.01,-118.11"/>
<polygon fill="grey" stroke="grey" stroke-width="2" points="104.5,-118.47 102.3,-108.1 97.55,-117.58 104.5,-118.47"/>
</g>
<!-- 22 -->
<g id="node22" class="node">
<title>22</title>
<path fill="none" stroke="#d88556" stroke-width="2" d="M47,-108C47,-108 12,-108 12,-108 6,-108 0,-102 0,-96 0,-96 0,-84 0,-84 0,-78 6,-72 12,-72 12,-72 47,-72 47,-72 53,-72 59,-78 59,-84 59,-84 59,-96 59,-96 59,-102 53,-108 47,-108"/>
<text text-anchor="middle" x="29.5" y="-87.5" font-family="sans" font-size="10.00">bagel2pr</text>
</g>
<!-- 17&#45;&gt;22 -->
<g id="edge22" class="edge">
<title>17&#45;&gt;22</title>
<path fill="none" stroke="grey" stroke-width="2" d="M79.19,-143.7C71.19,-135.22 61.43,-124.86 52.68,-115.58"/>
<polygon fill="grey" stroke="grey" stroke-width="2" points="55.03,-112.98 45.63,-108.1 49.94,-117.78 55.03,-112.98"/>
</g>
<!-- 18 -->
<g id="node18" class="node">
<title>18</title>
<path fill="none" stroke="#56d8a2" stroke-width="2" d="M79,-324C79,-324 18,-324 18,-324 12,-324 6,-318 6,-312 6,-312 6,-300 6,-300 6,-294 12,-288 18,-288 18,-288 79,-288 79,-288 85,-288 91,-294 91,-300 91,-300 91,-312 91,-312 91,-318 85,-324 79,-324"/>
<text text-anchor="middle" x="48.5" y="-303.5" font-family="sans" font-size="10.00">install_bagel2</text>
</g>
<!-- 18&#45;&gt;17 -->
<g id="edge16" class="edge">
<title>18&#45;&gt;17</title>
<path fill="none" stroke="grey" stroke-width="2" d="M54.17,-287.87C62.21,-263.56 77.02,-218.82 86.56,-190.01"/>
<polygon fill="grey" stroke="grey" stroke-width="2" points="89.99,-190.78 89.81,-180.19 83.35,-188.58 89.99,-190.78"/>
</g>
<!-- 19 -->
<g id="node19" class="node">
<title>19</title>
<path fill="none" stroke="#56b1d8" stroke-width="2" d="M143,-252C143,-252 108,-252 108,-252 102,-252 96,-246 96,-240 96,-240 96,-228 96,-228 96,-222 102,-216 108,-216 108,-216 143,-216 143,-216 149,-216 155,-222 155,-228 155,-228 155,-240 155,-240 155,-246 149,-252 143,-252"/>
<text text-anchor="middle" x="125.5" y="-231.5" font-family="sans" font-size="10.00">bagel2fc</text>
</g>
<!-- 18&#45;&gt;19 -->
<g id="edge17" class="edge">
<title>18&#45;&gt;19</title>
<path fill="none" stroke="grey" stroke-width="2" d="M67.53,-287.7C77.04,-279.05 88.71,-268.45 99.07,-259.03"/>
<polygon fill="grey" stroke="grey" stroke-width="2" points="101.64,-261.42 106.69,-252.1 96.93,-256.24 101.64,-261.42"/>
</g>
<!-- 18&#45;&gt;22 -->
<g id="edge21" class="edge">
<title>18&#45;&gt;22</title>
<path fill="none" stroke="grey" stroke-width="2" d="M46.98,-287.85C43.69,-250.83 35.91,-163.18 31.93,-118.39"/>
<polygon fill="grey" stroke="grey" stroke-width="2" points="35.4,-117.88 31.03,-108.23 28.43,-118.5 35.4,-117.88"/>
</g>
<!-- 19&#45;&gt;17 -->
<g id="edge15" class="edge">
<title>19&#45;&gt;17</title>
<path fill="none" stroke="grey" stroke-width="2" d="M118.08,-215.7C114.71,-207.81 110.63,-198.3 106.88,-189.55"/>
<polygon fill="grey" stroke="grey" stroke-width="2" points="109.99,-187.92 102.83,-180.1 103.55,-190.67 109.99,-187.92"/>
</g>
<!-- 20&#45;&gt;19 -->
<g id="edge18" class="edge">
<title>20&#45;&gt;19</title>
<path fill="none" stroke="grey" stroke-width="2" d="M239.56,-287.88C216.85,-277.35 187.77,-263.87 164.65,-253.15"/>
<polygon fill="grey" stroke="grey" stroke-width="2" points="166.02,-249.93 155.47,-248.9 163.07,-256.28 166.02,-249.93"/>
</g>
<!-- 21 -->
<g id="node21" class="node">
<title>21</title>
<path fill="none" stroke="#5682d8" stroke-width="2" d="M44.5,-36C44.5,-36 14.5,-36 14.5,-36 8.5,-36 2.5,-30 2.5,-24 2.5,-24 2.5,-12 2.5,-12 2.5,-6 8.5,0 14.5,0 14.5,0 44.5,0 44.5,0 50.5,0 56.5,-6 56.5,-12 56.5,-12 56.5,-24 56.5,-24 56.5,-30 50.5,-36 44.5,-36"/>
<text text-anchor="middle" x="29.5" y="-15.5" font-family="sans" font-size="10.00">plot_pr</text>
</g>
<!-- 22&#45;&gt;21 -->
<g id="edge20" class="edge">
<title>22&#45;&gt;21</title>
<path fill="none" stroke="grey" stroke-width="2" d="M29.5,-71.7C29.5,-63.98 29.5,-54.71 29.5,-46.11"/>
<polygon fill="grey" stroke="grey" stroke-width="2" points="33,-46.1 29.5,-36.1 26,-46.1 33,-46.1"/>
</g>
</g>
</svg>
